<svg xmlns="http://www.w3.org/2000/svg" viewBox="0 0 64 64" width="64" height="64">
    <defs>
        <!-- Gradient for the main icon -->
        <linearGradient id="iconGradient" x1="0%" y1="0%" x2="100%" y2="100%">
            <stop offset="0%" style="stop-color:#8b5cf6;stop-opacity:1" />
            <stop offset="100%" style="stop-color:#a855f7;stop-opacity:1" />
        </linearGradient>

        <!-- Gradient for accent elements -->
        <linearGradient id="accentGradient" x1="0%" y1="0%" x2="100%" y2="100%">
            <stop offset="0%" style="stop-color:#6366f1;stop-opacity:1" />
            <stop offset="100%" style="stop-color:#8b5cf6;stop-opacity:1" />
        </linearGradient>
    </defs>

    <!-- Background circle for better favicon appearance -->
    <circle cx="32" cy="32" r="30" fill="url(#iconGradient)" opacity="0.1" />

    <!-- Main folder/file structure - scaled up for favicon -->
    <g transform="translate(8, 18)">
        <!-- Base folder -->
        <rect x="0" y="12" width="28" height="22" rx="3" fill="url(#iconGradient)" />
        <rect x="4" y="4" width="20" height="6" rx="2" fill="url(#iconGradient)" />

        <!-- Route connections - thicker for small size visibility -->
        <path d="M 28 18 Q 36 18 36 26 Q 36 34 44 34" stroke="url(#accentGradient)"
            stroke-width="2.5" fill="none" />
        <path d="M 28 22 Q 34 22 34 28 Q 34 34 44 34" stroke="url(#accentGradient)" stroke-width="2"
            fill="none" opacity="0.8" />
        <path d="M 28 26 Q 32 26 32 30 Q 32 34 44 34" stroke="url(#accentGradient)" stroke-width="2"
            fill="none" opacity="0.8" />

        <!-- API endpoint indicator -->
        <circle cx="44" cy="34" r="3" fill="url(#accentGradient)" />

        <!-- Simplified documentation symbol for small size -->
        <g transform="translate(32, 6)">
            <rect x="0" y="0" width="10" height="12" rx="1" fill="none"
                stroke="url(#accentGradient)" stroke-width="1.5" />
            <line x1="2" y1="3" x2="8" y2="3" stroke="url(#accentGradient)" stroke-width="1" />
            <line x1="2" y1="5" x2="6" y2="5" stroke="url(#accentGradient)" stroke-width="1" />
            <line x1="2" y1="7" x2="8" y2="7" stroke="url(#accentGradient)" stroke-width="1" />
            <line x1="2" y1="9" x2="5" y2="9" stroke="url(#accentGradient)" stroke-width="1" />
        </g>
    </g>
</svg>
